<?xml version="1.0" encoding="UTF-8"?><svg id="Ebene_1" xmlns="http://www.w3.org/2000/svg" viewBox="0 0 460 100"><defs><style>.cls-1{letter-spacing:.38em;}.cls-2{letter-spacing:.34em;}.cls-3{stroke:#ddd;stroke-width:1.73px;}.cls-3,.cls-4{fill:none;}.cls-5{fill:#1a1a1a;}.cls-6{letter-spacing:.4em;}.cls-7{fill:#999;font-family:ArialMT, Arial;font-size:17.32px;isolation:isolate;}.cls-8{letter-spacing:.4em;}</style></defs><line class="cls-3" x1="12.45" y1="83.94" x2="116.36" y2="83.94"/><text class="cls-7" transform="translate(130.21 90.87)"><tspan class="cls-8" x="0" y="0">WEBDESIGN</tspan><tspan class="cls-2" x="168.19" y="0"> </tspan><tspan class="cls-6" x="178.97" y="0">AUS</tspan><tspan class="cls-1" x="235.36" y="0"> </tspan><tspan class="cls-6" x="246.79" y="0">TRIER</tspan></text><path class="cls-4" d="M160.9,43.64c-1.24.88-1.86,2-1.86,3.35s.5,2.48,1.49,3.45c.99.97,2.25,1.45,3.79,1.45,1.71,0,3.35-.56,4.9-1.69,1.15-.86,1.9-1.91,2.27-3.15.25-.81.37-2.36.37-4.63v-1.89c-1.22.41-3.15.89-5.78,1.45s-4.36,1.12-5.18,1.66Z"/><path class="cls-4" d="M262.18,28.32c-2.08,0-3.79.76-5.14,2.27s-2.02,3.56-2,6.16h14.21c-.07-2.75-.78-4.84-2.13-6.27s-3-2.15-4.94-2.15Z"/><path class="cls-4" d="M76.31,42.58v6.14c.26-.23.52-.44.76-.71,1.68-1.89,2.52-4.65,2.52-8.25s-.84-6.22-2.52-8.12c-1.68-1.89-3.76-2.84-6.24-2.84s-4.57.95-6.26,2.84-2.54,4.62-2.54,8.19.85,6.29,2.54,8.19c.24.27.51.47.76.71v-6.13h10.97Z"/><path class="cls-4" d="M27.67,28.55c-2.32,0-4.25.9-5.78,2.69-1.53,1.79-2.3,4.45-2.3,7.97,0,4.04.8,7.02,2.4,8.95,1.6,1.93,3.55,2.89,5.85,2.89s4.05-.88,5.51-2.66c1.46-1.77,2.2-4.67,2.2-8.71,0-3.77-.76-6.56-2.27-8.39-1.51-1.83-3.38-2.74-5.61-2.74Z"/><path class="cls-5" d="M30.24,21.05c-2.39,0-4.57.56-6.53,1.69s-3.52,2.59-4.67,4.4v-5.28h-8.86v49.59h9.5v-18.1c1.78,1.92,3.48,3.27,5.09,4.06,1.61.79,3.41,1.18,5.4,1.18,4.17,0,7.72-1.66,10.65-4.99,2.93-3.33,4.4-7.99,4.4-13.99s-1.45-10.4-4.36-13.67-6.45-4.9-10.62-4.9ZM33.35,48.39c-1.47,1.77-3.3,2.66-5.51,2.66s-4.25-.96-5.85-2.89c-1.6-1.93-2.4-4.91-2.4-8.95,0-3.52.77-6.17,2.3-7.97,1.53-1.79,3.46-2.69,5.78-2.69s4.1.91,5.61,2.74c1.51,1.83,2.27,4.62,2.27,8.39,0,4.04-.73,6.94-2.2,8.71Z"/><path class="cls-5" d="M70.8,21.05c-3.52,0-6.7.78-9.56,2.33-2.85,1.56-5.06,3.81-6.61,6.76s-2.33,6.01-2.33,9.17c0,4.13.78,7.63,2.33,10.5s3.83,5.06,6.82,6.55c1.27.63,2.57,1.1,3.89,1.46v-9.11c-.26-.23-.52-.44-.76-.71-1.69-1.89-2.54-4.62-2.54-8.19s.85-6.29,2.54-8.19,3.78-2.84,6.26-2.84,4.56.95,6.24,2.84c1.68,1.89,2.52,4.6,2.52,8.12s-.84,6.36-2.52,8.25c-.24.27-.51.48-.76.71v9.16c2.97-.83,5.57-2.37,7.8-4.64,3.51-3.57,5.26-8.08,5.26-13.51s-1.74-9.85-5.21-13.38c-3.47-3.53-7.93-5.29-13.36-5.29Z"/><path class="cls-5" d="M111.04,22.2c-1.21.77-2.57,2.36-4.08,4.77v-5.11h-8.83v35.92h9.5v-11.09c0-6.11.26-10.13.79-12.04.53-1.92,1.26-3.24,2.18-3.97.92-.73,2.05-1.1,3.38-1.1s2.86.52,4.46,1.56l2.94-8.29c-2.01-1.2-4.09-1.79-6.26-1.79-1.53,0-2.9.38-4.11,1.15Z"/><path class="cls-5" d="M139.85,50.71c-.63,0-1.17-.16-1.61-.47s-.72-.72-.85-1.2c-.13-.49-.19-2.19-.19-5.12v-14.48h6.49v-7.58h-6.49v-12.68l-9.54,5.55v7.14h-4.36v7.58h4.36v15.66c0,3.36.1,5.59.3,6.7.25,1.56.69,2.79,1.34,3.7s1.65,1.66,3.03,2.23c1.37.58,2.92.86,4.63.86,2.8,0,5.3-.47,7.51-1.42l-.81-7.37c-1.67.61-2.94.91-3.82.91Z"/><path class="cls-5" d="M181.09,45.97l.1-11.09c0-4.13-.42-6.96-1.27-8.51s-2.31-2.82-4.38-3.82c-2.08-1-5.23-1.51-9.47-1.51-4.67,0-8.19.83-10.55,2.5s-4.04,4.24-5.01,7.71l8.63,1.56c.59-1.67,1.35-2.84,2.3-3.5s2.27-1,3.96-1c2.5,0,4.2.39,5.11,1.17.9.78,1.35,2.08,1.35,3.91v.95c-1.71.72-4.79,1.5-9.23,2.33-3.29.63-5.81,1.37-7.56,2.22-1.75.85-3.11,2.06-4.08,3.65-.97,1.59-1.45,3.4-1.45,5.43,0,3.07,1.07,5.6,3.2,7.61s5.04,3.01,8.74,3.01c2.1,0,4.07-.39,5.92-1.18,1.85-.79,3.59-1.97,5.21-3.55.07.18.18.55.34,1.12.36,1.24.66,2.18.91,2.81h9.4c-.84-1.71-1.4-3.32-1.71-4.82s-.46-3.83-.46-6.98ZM171.86,42.42c0,2.28-.13,3.82-.37,4.63-.36,1.24-1.12,2.29-2.27,3.15-1.56,1.13-3.19,1.69-4.9,1.69-1.53,0-2.8-.49-3.79-1.45-.99-.97-1.49-2.12-1.49-3.45s.62-2.47,1.86-3.35c.81-.54,2.54-1.09,5.18-1.66s4.57-1.05,5.78-1.45v1.89Z"/><polygon class="cls-5" points="224.93 45.4 218.95 21.86 209.78 21.86 203.59 45.4 196.86 21.86 187.62 21.86 198.99 57.78 208.22 57.78 214.31 34.68 220.5 57.78 229.63 57.78 241.17 21.86 231.8 21.86 224.93 45.4"/><path class="cls-5" d="M274.26,26.34c-3.09-3.53-7.31-5.29-12.65-5.29-4.76,0-8.69,1.69-11.8,5.06s-4.67,8.03-4.67,13.99c0,4.98,1.18,9.11,3.55,12.38,3,4.08,7.62,6.12,13.87,6.12,3.95,0,7.23-.91,9.86-2.72,2.63-1.81,4.55-4.46,5.77-7.93l-9.47-1.59c-.52,1.8-1.29,3.11-2.3,3.92s-2.27,1.22-3.75,1.22c-2.19,0-4.01-.78-5.48-2.35-1.47-1.57-2.23-3.76-2.3-6.58h23.81c.14-7.28-1.34-12.69-4.43-16.22ZM255.04,36.74c-.02-2.59.64-4.65,2-6.16s3.07-2.27,5.14-2.27c1.94,0,3.59.72,4.94,2.15s2.06,3.52,2.13,6.27h-14.21Z"/><path class="cls-5" d="M300.66,22.2c-1.21.77-2.57,2.36-4.08,4.77v-5.11h-8.83v35.92h9.5v-11.09c0-6.11.26-10.13.79-12.04.53-1.92,1.26-3.24,2.18-3.97.92-.73,2.05-1.1,3.38-1.1s2.86.52,4.46,1.56l2.94-8.29c-2.01-1.2-4.09-1.79-6.26-1.79-1.53,0-2.9.38-4.11,1.15Z"/><polygon class="cls-5" points="336.57 34.98 348.85 21.86 337.15 21.86 326.02 34.51 326.02 8.19 316.52 8.19 316.52 57.78 326.02 57.78 326.02 46.28 330.45 41.64 339.48 57.78 349.73 57.78 336.57 34.98"/></svg>